# xmcd CD database file
#
# Track frame offsets:
#	150
#	25410
#	47880
#	65168
#	90428
#
# Disc length: 1503 seconds
#
# Revision: 0
# Processed by: cddbd v1.5.1PL2 Copyright (c) Steve Scherf et al.
# Submitted via: CDex 1.51
#
DISCID=3f05dd05
DTITLE=RYTHEM - 20粒のココロ
DYEAR=2006
DGENRE=JPop
TTITLE0=20粒のココロ
TTITLE1=Dear Friend
TTITLE2=Song for you
TTITLE3=20粒のココロ(instrumental)
TTITLE4=Dear Friend(instrumental)
EXTD=YEAR: 2006/01/02
EXTT0=
EXTT1=
EXTT2=
EXTT3=
EXTT4=
PLAYORDER=
